<?xml version="1.0" encoding="UTF-8" standalone="no"?>
<svg
   fill="none"
   viewBox="0 0 96 96"
   class="eHmVgpFRodaWaS9Ka39P"
   width="32"
   height="32"
   version="1.1"
   id="svg7"
   sodipodi:docname="ddg-icon-dark.svg"
   inkscape:version="1.3.2 (091e20e, 2023-11-25)"
   inkscape:export-filename="ddg-icon-dark-32.png"
   inkscape:export-xdpi="96"
   inkscape:export-ydpi="96"
   xmlns:inkscape="http://www.inkscape.org/namespaces/inkscape"
   xmlns:sodipodi="http://sodipodi.sourceforge.net/DTD/sodipodi-0.dtd"
   xmlns="http://www.w3.org/2000/svg"
   xmlns:svg="http://www.w3.org/2000/svg">
  <defs
     id="defs7">
    <mask
       maskUnits="userSpaceOnUse"
       id="mask9">
      <path
         style="fill:#f9f9f9;stroke:none;stroke-width:2.16214px;stroke-linecap:butt;stroke-linejoin:miter;stroke-opacity:1"
         d="m 51.922208,79.984355 3.820414,-28.863091 24.249432,0.04999 0.03791,-35.191754 -64.051755,0.01018 -0.0402,64.043974 z"
         id="path9"
         sodipodi:nodetypes="ccccccc" />
    </mask>
  </defs>
  <sodipodi:namedview
     id="namedview7"
     pagecolor="#1a1a1a"
     bordercolor="#666666"
     borderopacity="1.0"
     inkscape:showpageshadow="2"
     inkscape:pageopacity="0.0"
     inkscape:pagecheckerboard="0"
     inkscape:deskcolor="#d1d1d1"
     showgrid="true"
     showguides="true"
     inkscape:zoom="9.3003131"
     inkscape:cx="23.278786"
     inkscape:cy="18.010146"
     inkscape:window-width="1280"
     inkscape:window-height="996"
     inkscape:window-x="2944"
     inkscape:window-y="176"
     inkscape:window-maximized="1"
     inkscape:current-layer="svg7">
    <inkscape:grid
       id="grid8"
       units="px"
       originx="0"
       originy="0"
       spacingx="3"
       spacingy="3"
       empcolor="#0099e5"
       empopacity="0.30196078"
       color="#0099e5"
       opacity="0.14901961"
       empspacing="5"
       dotted="false"
       gridanglex="30"
       gridanglez="30"
       visible="true"
       snapvisiblegridlinesonly="true"
       enabled="true" />
  </sodipodi:namedview>
  <g
     id="g8"
     transform="matrix(1.4061166,0,0,1.4057086,-19.478155,-19.478342)"
     mask="url(#mask9)">
    <rect
       width="64"
       height="64"
       x="16"
       y="16"
       fill="#de5833"
       rx="32"
       id="rect1" />
    <path
       fill="#dddddd"
       fill-rule="evenodd"
       d="M 55.21,76.687 C 53.866,74.073 52.58,71.668 51.783,70.077 49.662,65.83 47.53,59.842 48.499,55.981 48.676,55.279 46.501,29.998 44.964,29.184 c -1.708,-0.91 -3.81,-2.355 -5.733,-2.676 -0.976,-0.156 -2.255,-0.082 -3.255,0.053 -0.178,0.023 -0.185,0.343 -0.015,0.4 0.656,0.223 1.453,0.609 1.923,1.193 0.09,0.11 -0.03,0.284 -0.172,0.29 -0.443,0.016 -1.246,0.202 -2.306,1.102 -0.123,0.104 -0.02,0.297 0.137,0.266 2.278,-0.45 4.604,-0.229 5.975,1.018 0.09,0.08 0.043,0.226 -0.073,0.257 -11.898,3.233 -9.543,13.583 -6.375,26.283 2.984,11.967 4.4,16.687 4.57,17.247 a 0.138,0.138 0 0 0 0.067,0.086 c 2.452,1.346 15.346,2.163 14.799,0.622 z"
       clip-rule="evenodd"
       id="path1" />
    <path
       fill="#ffffff"
       fill-rule="evenodd"
       d="M 77.5,48 C 77.5,64.292 64.292,77.5 48,77.5 31.708,77.5 18.5,64.292 18.5,48 18.5,31.708 31.708,18.5 48,18.5 64.292,18.5 77.5,31.708 77.5,48 M 41.122,74.08 A 286.913,286.913 0 0 1 35.772,55.063 L 35.548,54.145 35.546,54.137 C 32.822,43.012 30.597,33.925 42.79,31.071 c 0.111,-0.026 0.166,-0.16 0.092,-0.247 -1.399,-1.66 -4.02,-2.204 -7.333,-1.06 -0.136,0.046 -0.254,-0.09 -0.17,-0.207 0.65,-0.896 1.92,-1.584 2.547,-1.886 0.13,-0.063 0.121,-0.252 -0.016,-0.295 a 13.99,13.99 0 0 0 -1.893,-0.452 c -0.186,-0.03 -0.203,-0.348 -0.016,-0.373 4.697,-0.632 9.603,0.778 12.065,3.879 0.023,0.03 0.056,0.05 0.093,0.057 9.014,1.936 9.66,16.186 8.622,16.835 -0.205,0.128 -0.861,0.055 -1.727,-0.042 -3.507,-0.392 -10.453,-1.17 -4.72,9.514 0.056,0.106 -0.019,0.245 -0.137,0.264 -3.185,0.495 0.913,10.527 3.947,17.204 C 66.076,71.482 74.964,60.779 74.964,48 74.964,33.108 62.892,21.035 48,21.035 33.108,21.035 21.035,33.108 21.035,48 c 0,12.515 8.526,23.039 20.087,26.08"
       clip-rule="evenodd"
       id="path2" />
    <path
       fill="#3ca82b"
       d="m 58.183,61.406 c -0.686,-0.318 -3.325,1.574 -5.076,3.027 -0.366,-0.518 -1.056,-0.895 -2.613,-0.624 -1.363,0.237 -2.115,0.566 -2.45,1.132 -2.15,-0.815 -5.769,-2.074 -6.643,-0.858 -0.955,1.328 0.239,7.612 1.508,8.428 0.662,0.426 3.831,-1.61 5.486,-3.016 0.267,0.377 0.697,0.592 1.58,0.571 1.337,-0.03 3.505,-0.342 3.841,-0.964 a 0.684,0.684 0 0 0 0.053,-0.133 c 1.701,0.635 4.695,1.308 5.364,1.208 1.743,-0.262 -0.243,-8.397 -1.05,-8.771 z"
       id="path3" />
    <path
       fill="#4cba3c"
       d="m 53.267,64.619 c 0.073,0.128 0.13,0.264 0.18,0.402 0.242,0.678 0.637,2.836 0.339,3.368 -0.299,0.533 -2.24,0.79 -3.436,0.811 -1.197,0.021 -1.467,-0.417 -1.71,-1.095 -0.193,-0.542 -0.289,-1.818 -0.287,-2.548 -0.049,-1.084 0.347,-1.464 2.177,-1.76 1.353,-0.22 2.07,0.035 2.483,0.471 1.922,-1.434 5.129,-3.459 5.441,-3.089 1.56,1.845 1.757,6.237 1.42,8.004 -0.111,0.578 -5.275,-0.572 -5.275,-1.195 0,-2.587 -0.672,-3.297 -1.331,-3.37 z M 41.955,63.81 c 0.423,-0.669 3.853,0.164 5.736,1.002 0,0 -0.387,1.753 0.229,3.818 0.18,0.604 -4.332,3.293 -4.921,2.83 -0.68,-0.534 -1.933,-6.242 -1.044,-7.65 z"
       id="path4" />
    <path
       fill="#ffcc33"
       fill-rule="evenodd"
       d="m 43.616,50.213 c 0.278,-1.207 1.57,-3.481 6.187,-3.426 2.334,-0.01 5.233,0 7.155,-0.22 a 25.733,25.733 0 0 0 6.39,-1.553 c 1.998,-0.763 2.707,-0.593 2.956,-0.137 0.273,0.502 -0.049,1.367 -0.747,2.164 -1.334,1.522 -3.731,2.701 -7.966,3.051 -4.235,0.35 -7.04,-0.786 -8.248,1.064 -0.52,0.797 -0.118,2.677 3.977,3.27 5.534,0.798 10.079,-0.963 10.64,0.1 0.562,1.064 -2.673,3.228 -8.216,3.273 -5.542,0.045 -9.005,-1.94 -10.232,-2.928 -1.558,-1.252 -2.255,-3.079 -1.896,-4.658 z"
       clip-rule="evenodd"
       id="path5" />
    <g
       fill="#14307e"
       opacity="0.8"
       id="g7">
      <path
         d="m 50.675,37.017 c 0.309,-0.506 0.995,-0.897 2.117,-0.897 1.122,0 1.65,0.446 2.015,0.944 0.074,0.102 -0.038,0.22 -0.154,0.17 a 20.255,20.255 0 0 1 -0.084,-0.036 c -0.41,-0.179 -0.914,-0.399 -1.777,-0.411 -0.924,-0.014 -1.506,0.218 -1.872,0.417 -0.124,0.067 -0.318,-0.067 -0.245,-0.187 z m -12.632,0.648 c 1.09,-0.456 1.946,-0.397 2.551,-0.254 0.128,0.03 0.216,-0.107 0.114,-0.189 -0.47,-0.379 -1.521,-0.85 -2.892,-0.338 -1.224,0.456 -1.8,1.404 -1.804,2.027 0,0.147 0.301,0.16 0.38,0.035 0.21,-0.336 0.562,-0.826 1.651,-1.281"
         fill="#14307e"
         id="path6" />
      <path
         fill-rule="evenodd"
         d="m 53.745,43.943 c -0.964,0 -1.745,-0.78 -1.745,-1.738 0,-0.96 0.781,-1.738 1.745,-1.738 0.963,0 1.744,0.779 1.744,1.738 0,0.959 -0.781,1.738 -1.744,1.738 m 1.228,-2.314 a 0.4515,0.4515 0 0 0 -0.903,0 0.4515,0.4515 0 0 0 0.903,0 m -12.786,1.779 a 2.03,2.03 0 0 1 -2.033,2.026 2.031,2.031 0 0 1 -2.034,-2.026 c 0,-1.12 0.912,-2.027 2.034,-2.027 a 2.03,2.03 0 0 1 2.033,2.027 m -0.6,-0.672 a 0.526,0.526 0 0 0 -1.052,0 0.5265,0.5265 0 0 0 1.053,0 z"
         clip-rule="evenodd"
         fill="#14307e"
         id="path7" />
    </g>
  </g>
  <text
     xml:space="preserve"
     style="font-size:47.9601px;line-height:1.25;font-family:'Noto Sans';-inkscape-font-specification:'Noto Sans';word-spacing:0px;fill:#ffffff;fill-opacity:1;stroke-width:3"
     x="56.819164"
     y="92.956352"
     id="text7"><tspan
       sodipodi:role="line"
       id="tspan7"
       style="font-style:normal;font-variant:normal;font-weight:normal;font-stretch:normal;font-family:Impact;-inkscape-font-specification:Impact;fill:#ffffff;fill-opacity:1;stroke-width:3"
       x="56.819164"
       y="92.956352">AI</tspan></text>
</svg>
